<?xml version="1.0" encoding="UTF-8"?>
<svg xmlns="http://www.w3.org/2000/svg" xmlns:xlink="http://www.w3.org/1999/xlink" width="970px" height="957px" viewBox="0 0 970 957" version="1.1">
<g id="surface1">
<path style=" stroke:none;fill-rule:nonzero;fill:rgb(95.686275%,33.333334%,25.882354%);fill-opacity:1;" d="M 863.90625 478.5 C 863.90625 544.121094 846.398438 608.585938 813.140625 665.414062 L 485 478.5 Z M 863.90625 478.5 "/>
<path style=" stroke:none;fill-rule:nonzero;fill:rgb(86.666667%,19.607843%,25.882354%);fill-opacity:1;" d="M 813.121094 665.453125 C 779.859375 722.277344 732.019531 769.460938 674.414062 802.265625 L 485 478.5 Z M 813.121094 665.453125 "/>
<path style=" stroke:none;fill-rule:nonzero;fill:rgb(68.627453%,18.431373%,47.450981%);fill-opacity:1;" d="M 674.417969 802.265625 C 616.8125 835.070312 551.472656 852.335938 484.960938 852.328125 L 485 478.5 Z M 674.417969 802.265625 "/>
<path style=" stroke:none;fill-rule:nonzero;fill:rgb(14.901961%,33.725491%,67.058825%);fill-opacity:1;" d="M 106.09375 478.5 C 106.09375 544.121094 123.601562 608.585938 156.859375 665.414062 L 485 478.5 Z M 106.09375 478.5 "/>
<path style=" stroke:none;fill-rule:nonzero;fill:rgb(47.450981%,26.274511%,63.921571%);fill-opacity:1;" d="M 156.878906 665.453125 C 190.140625 722.277344 237.980469 769.460938 295.585938 802.265625 L 485 478.5 Z M 156.878906 665.453125 "/>
<path style=" stroke:none;fill-rule:nonzero;fill:rgb(63.529414%,23.529412%,63.529414%);fill-opacity:1;" d="M 295.582031 802.265625 C 353.1875 835.070312 418.527344 852.335938 485.039062 852.328125 L 485 478.5 Z M 295.582031 802.265625 "/>
<path style=" stroke:none;fill-rule:nonzero;fill:rgb(0.392157%,60.392159%,52.156866%);fill-opacity:1;" d="M 106.09375 478.5 C 106.09375 412.878906 123.601562 348.414062 156.859375 291.585938 L 485 478.5 Z M 106.09375 478.5 "/>
<path style=" stroke:none;fill-rule:nonzero;fill:rgb(0.392157%,68.235296%,36.078432%);fill-opacity:1;" d="M 156.878906 291.546875 C 190.140625 234.722656 237.980469 187.539062 295.585938 154.734375 L 485 478.5 Z M 156.878906 291.546875 "/>
<path style=" stroke:none;fill-rule:nonzero;fill:rgb(63.137257%,81.176472%,28.627452%);fill-opacity:1;" d="M 295.582031 154.734375 C 353.1875 121.929688 418.527344 104.664062 485.039062 104.671875 L 485 478.5 Z M 295.582031 154.734375 "/>
<path style=" stroke:none;fill-rule:nonzero;fill:rgb(97.647059%,47.058824%,15.294118%);fill-opacity:1;" d="M 863.90625 478.5 C 863.90625 412.878906 846.398438 348.414062 813.140625 291.585938 L 485 478.5 Z M 863.90625 478.5 "/>
<path style=" stroke:none;fill-rule:nonzero;fill:rgb(98.823529%,63.921571%,7.450981%);fill-opacity:1;" d="M 813.121094 291.546875 C 779.859375 234.722656 732.019531 187.539062 674.414062 154.734375 L 485 478.5 Z M 813.121094 291.546875 "/>
<path style=" stroke:none;fill-rule:nonzero;fill:rgb(100%,89.803922%,1.176471%);fill-opacity:1;" d="M 674.417969 154.734375 C 616.8125 121.929688 551.472656 104.664062 484.960938 104.671875 L 485 478.5 Z M 674.417969 154.734375 "/>
<path style=" stroke:none;fill-rule:nonzero;fill:rgb(0%,0%,0%);fill-opacity:0.25098;" d="M 769.179688 478.5 C 769.179688 323.65625 641.949219 198.128906 485 198.128906 C 328.050781 198.128906 200.820312 323.65625 200.820312 478.5 C 200.820312 633.34375 328.050781 758.871094 485 758.871094 C 641.949219 758.871094 769.179688 633.34375 769.179688 478.5 Z M 769.179688 478.5 "/>
<path style=" stroke:none;fill-rule:nonzero;fill:rgb(0%,0%,0%);fill-opacity:0.25098;" d="M 674.453125 478.5 C 674.453125 375.269531 589.632812 291.585938 485 291.585938 C 380.367188 291.585938 295.546875 375.269531 295.546875 478.5 C 295.546875 581.730469 380.367188 665.414062 485 665.414062 C 589.632812 665.414062 674.453125 581.730469 674.453125 478.5 Z M 674.453125 478.5 "/>
<path style=" stroke:none;fill-rule:nonzero;fill:rgb(0%,0%,0%);fill-opacity:0.25098;" d="M 579.726562 478.5 C 579.726562 426.886719 537.316406 385.042969 485 385.042969 C 432.683594 385.042969 390.273438 426.886719 390.273438 478.5 C 390.273438 530.113281 432.683594 571.957031 485 571.957031 C 537.316406 571.957031 579.726562 530.113281 579.726562 478.5 Z M 579.726562 478.5 "/>
</g>
</svg>
